<svg width="304" height="113" viewBox="0 0 304 113" fill="none" xmlns="http://www.w3.org/2000/svg">
<g clip-path="url(#clip0_13_3320)">
<path d="M27.58 112.489H38.3723V67.6311H27.58V85.2036H10.7922V67.6311H0.00012207V112.489H10.7922V94.0215H27.58V112.489ZM74.3681 94.6605C74.3681 83.3501 66.4162 76.3213 56.0657 76.3213C45.7783 76.3213 37.7633 83.3501 37.7633 94.6605C37.7633 105.971 45.5891 113 55.9395 113C66.2899 113 74.3681 105.971 74.3681 94.6605ZM48.7448 94.6605C48.7448 88.5902 52.153 85.7785 56.0657 85.7785C59.8526 85.7785 63.3866 88.5902 63.3866 94.6605C63.3866 100.667 59.7893 103.542 55.9395 103.542C52.0268 103.542 48.7448 100.667 48.7448 94.6605ZM108.661 76.8327H97.8685V96.1943C97.8685 101.051 95.2176 103.734 91.0524 103.734C87.0132 103.734 84.2994 101.051 84.2994 96.1943V76.8327H73.5703V97.6641C73.5703 107.185 79.0609 112.872 87.2024 112.872C91.936 112.872 95.7225 110.7 97.8685 107.632V112.489H108.661V76.833V76.8327ZM138.787 102.137C138.598 88.8458 119.538 92.8714 119.538 87.1845C119.538 85.4591 120.927 84.4368 123.451 84.4368C126.48 84.4368 128.311 86.0344 128.626 88.4624H138.598C137.904 81.4332 132.855 76.3216 123.767 76.3216C114.552 76.3216 109.44 81.3058 109.44 87.376C109.44 100.475 128.626 96.3221 128.626 102.073C128.626 103.671 127.175 104.949 124.398 104.949C121.432 104.949 119.223 103.287 118.97 100.795H108.304C108.809 107.696 115.12 113 124.524 113C133.36 113 138.788 108.335 138.788 102.137L138.787 102.137ZM154.714 85.0758C158.311 85.0758 161.341 87.3123 161.341 91.2101H147.834C148.466 87.2485 151.179 85.0758 154.714 85.0758ZM171.565 100.667H160.078C159.195 102.584 157.491 104.118 154.461 104.118C150.99 104.118 148.15 101.945 147.772 97.2807H172.196C172.322 96.1943 172.385 95.1082 172.385 94.0859C172.385 83.2229 165.127 76.3219 154.84 76.3219C144.363 76.3219 137.042 83.3507 137.042 94.6611C137.042 105.971 144.49 113 154.84 113C163.613 113 169.861 107.633 171.565 100.668L171.565 100.667ZM199.419 112.489H210.212V67.6311H199.419V85.2036H182.631V67.6311H171.839V112.489H182.631V94.0215H199.419V112.489ZM246.523 76.8327H235.731V96.1943C235.731 101.051 233.08 103.734 228.915 103.734C224.876 103.734 222.162 101.051 222.162 96.1943V76.8327H211.433V97.6641C211.433 107.185 216.923 112.872 225.065 112.872C229.799 112.872 233.585 110.7 235.731 107.632V112.489H246.523V76.833V76.8327ZM272.358 112.489H283.087V91.6572C283.087 82.0722 277.66 76.4491 269.518 76.4491C264.785 76.4491 260.998 78.5578 258.852 81.561V76.8324H248.06V112.488H258.852V93.1267C258.852 88.2703 261.503 85.5866 265.605 85.5866C269.707 85.5866 272.358 88.2703 272.358 93.1267V112.488V112.489ZM286.076 100.092C286.076 109.357 291.188 112.489 298.509 112.489H304V103.223H300.15C297.752 103.223 296.869 102.329 296.869 100.22V85.9066H303.937V76.8327H296.869V68.1423H286.076V76.8327H281.785V85.9066H286.076V100.092H286.076Z" fill="white"/>
<path d="M105.064 67.6488H38.2488L105.064 0L171.88 67.6488H105.064ZM61.9704 57.6998H148.158L105.064 14.0685L61.9707 57.6998H61.9704Z" fill="white"/>
</g>
<defs>
<clipPath id="clip0_13_3320">
<rect width="304" height="113" fill="white"/>
</clipPath>
</defs>
</svg>
