<svg width="94" height="35" viewBox="0 0 94 35" fill="none" xmlns="http://www.w3.org/2000/svg">
<g clip-path="url(#clip0_13_22)">
<path d="M8.5281 34.8416H11.8652V20.9477H8.5281V26.3905H3.33713V20.9477H0.00012207V34.8416H3.33713V29.1217H8.5281V34.8416ZM22.9955 29.3196C22.9955 25.8164 20.5367 23.6393 17.3362 23.6393C14.1552 23.6393 11.6769 25.8164 11.6769 29.3196C11.6769 32.8228 14.0967 34.9999 17.2972 34.9999C20.4976 34.9999 22.9955 32.8227 22.9955 29.3196ZM15.0725 29.3196C15.0725 27.4394 16.1263 26.5686 17.3362 26.5686C18.5071 26.5686 19.5999 27.4394 19.5999 29.3196C19.5999 31.18 18.4876 32.0707 17.2972 32.0707C16.0873 32.0707 15.0725 31.18 15.0725 29.3196ZM33.5991 23.7977H30.262V29.7947C30.262 31.2989 29.4424 32.1301 28.1545 32.1301C26.9055 32.1301 26.0663 31.2989 26.0663 29.7947V23.7977H22.7488V30.2499C22.7488 33.1989 24.4465 34.9604 26.964 34.9604C28.4277 34.9604 29.5985 34.2875 30.262 33.3375V34.8417H33.5991V23.7978V23.7977ZM42.9146 31.6353C42.856 27.5186 36.9626 28.7655 36.9626 27.004C36.9626 26.4696 37.3919 26.153 38.1724 26.153C39.1092 26.153 39.6751 26.6478 39.7726 27.3999H42.856C42.6413 25.2227 41.0801 23.6394 38.27 23.6394C35.4209 23.6394 33.8401 25.1832 33.8401 27.0634C33.8401 31.1207 39.7727 29.8343 39.7727 31.6155C39.7727 32.1104 39.3239 32.5062 38.4653 32.5062C37.5481 32.5062 36.865 31.9916 36.787 31.2197H33.4889C33.645 33.3572 35.5965 35 38.5043 35C41.2363 35 42.9147 33.5552 42.9147 31.6354L42.9146 31.6353ZM47.8392 26.3509C48.9516 26.3509 49.8883 27.0436 49.8883 28.2509H45.7121C45.9072 27.0239 46.7463 26.3509 47.8392 26.3509ZM53.0496 31.18H49.4979C49.2247 31.7739 48.6978 32.2488 47.7612 32.2488C46.6878 32.2488 45.8097 31.576 45.6926 30.1312H53.2449C53.2839 29.7947 53.3034 29.4583 53.3034 29.1416C53.3034 25.777 51.0591 23.6395 47.8782 23.6395C44.6388 23.6395 42.3751 25.8166 42.3751 29.3198C42.3751 32.823 44.6778 35.0001 47.8782 35.0001C50.5908 35.0001 52.5228 33.3376 53.0497 31.1802L53.0496 31.18ZM61.6626 34.8416H64.9997V20.9477H61.6626V26.3905H56.4716V20.9477H53.1346V34.8416H56.4716V29.1217H61.6626V34.8416ZM76.2276 23.7977H72.8906V29.7947C72.8906 31.2989 72.0709 32.1301 70.783 32.1301C69.534 32.1301 68.6949 31.2989 68.6949 29.7947V23.7977H65.3774V30.2499C65.3774 33.1989 67.0751 34.9604 69.5925 34.9604C71.0562 34.9604 72.227 34.2875 72.8906 33.3375V34.8417H76.2276V23.7978V23.7977ZM84.2161 34.8416H87.5337V28.3894C87.5337 25.4206 85.8554 23.6789 83.338 23.6789C81.8743 23.6789 80.7035 24.332 80.0399 25.2623V23.7976H76.7029V34.8415H80.0399V28.8445C80.0399 27.3403 80.8596 26.5091 82.128 26.5091C83.3965 26.5091 84.2161 27.3403 84.2161 28.8445V34.8415V34.8416ZM88.4578 31.002C88.4578 33.8718 90.0386 34.8416 92.3023 34.8416H94.0001V31.9718H92.8097C92.0682 31.9718 91.795 31.6947 91.795 31.0416V26.6082H93.9806V23.7977H91.795V21.106H88.4579V23.7977H87.1309V26.6082H88.4579V31.002H88.4578Z" fill="white"/>
<path d="M32.487 20.9532H11.827L32.487 -3.8147e-06L53.1471 20.9532H32.487ZM19.162 17.8716H45.8122L32.4871 4.35748L19.1621 17.8716H19.162Z" fill="white"/>
</g>
<defs>
<clipPath id="clip0_13_22">
<rect width="94" height="35" fill="white"/>
</clipPath>
</defs>
</svg>
