<svg width="77" height="98" viewBox="0 0 77 98" fill="none" xmlns="http://www.w3.org/2000/svg">
<path d="M29.006 32.2805C29.1016 31.4082 30.1941 31.0732 30.7622 31.742L42.4187 45.464C42.6557 45.7429 43.0261 45.8701 43.3844 45.7956L61.0119 42.1293C61.871 41.9507 62.5272 42.8862 62.0667 43.6332L52.6184 58.9595C52.4263 59.271 52.4198 59.6627 52.6014 59.9804L61.5354 75.6122C61.9708 76.374 61.2839 77.2872 60.4311 77.0801L42.9353 72.8303C42.5796 72.7439 42.2051 72.8587 41.959 73.1296L29.8531 86.4568C29.2631 87.1064 28.1823 86.7353 28.1158 85.8603L26.7511 67.9074C26.7234 67.5424 26.4984 67.2218 26.1647 67.0715L9.74885 59.6764C8.94877 59.316 8.96775 58.1734 9.77937 57.8397L26.4318 50.9941C26.7704 50.8549 27.0058 50.5419 27.0457 50.1781L29.006 32.2805Z" fill="#8884FF"/>
<path d="M54.7036 7.79844L49.5818 13.3581L53.9837 19.0312L47.2424 16.2405L42.8744 22.3727L43.8298 15.0883L36.7284 13.2051L44.0601 11.4938L44.0392 4.19771L47.6151 10.4245L54.7036 7.79844Z" fill="white"/>
<path d="M15.0741 82.4293L14.9058 86.655L18.8378 87.4779L14.9532 88.7314L15.3136 92.928L13.0811 89.4769L9.37185 91.2477L11.8767 87.8614L9.22379 84.7592L13.0044 86.1174L15.0741 82.4293Z" fill="#4648FE"/>
</svg>
