<svg width="113" height="104" viewBox="0 0 113 104" fill="none" xmlns="http://www.w3.org/2000/svg">
<path d="M67.5064 29.355C69.2484 27.8236 71.7638 29.9882 70.5091 31.939L61.1399 46.5062C60.5296 47.4551 60.8246 48.7208 61.7916 49.3022L74.2715 56.8045C76.0616 57.8807 75.2114 60.6353 73.1262 60.5153L55.6341 59.5088C54.7787 59.4596 53.987 59.9607 53.6654 60.7549L46.4798 78.5007C45.633 80.5918 42.5118 79.8995 42.6286 77.6465L43.3971 62.8321C43.4648 61.5259 42.2811 60.5073 40.9996 60.769L26.4653 63.737C24.2549 64.1884 23.105 61.2052 25.0465 60.0563L41.5231 50.3057C42.2604 49.8693 42.6379 49.0118 42.4618 48.1733L38.8592 31.0267C38.4297 28.9826 41.0269 27.7313 42.3578 29.341L51.6366 40.5632C52.3556 41.4328 53.6511 41.5358 54.4985 40.7908L67.5064 29.355Z" fill="#A3A4FF"/>
<path d="M63.4856 10.0342L60.6448 15.5609L65.3747 19.092L59.4223 18.3569L57.3041 24.1721L56.4661 18.1912L50.4271 18.254L55.8616 15.2927L54.2474 9.51632L58.4442 13.6671L63.4856 10.0342Z" fill="#DFDFFF"/>
<path d="M29.5084 86.9393L26.4024 87.7485L26.6715 90.7855L24.9049 88.2406L21.9366 89.4274L23.9508 87.0454L21.8472 84.7419L24.8586 85.8146L26.5268 83.2042L26.3738 86.2492L29.5084 86.9393Z" fill="white"/>
<path d="M102.114 31.5854L97.2698 41.0104L105.336 47.0324L95.185 45.7788L91.5726 55.696L90.1434 45.4962L79.8445 45.6033L89.1125 40.5531L86.3597 30.7021L93.5168 37.7808L102.114 31.5854Z" fill="#4042FF"/>
</svg>
